<?xml version="1.0" encoding="utf-8"?>
<svg xmlns="http://www.w3.org/2000/svg"
    xmlns:xlink="http://www.w3.org/1999/xlink"
    width="520" height="520" viewBox="-10 -10 520 520">
<defs>
<style type="text/css"><![CDATA[
line {
    stroke: #000000;
    stroke-linecap: square;
    stroke-width: 5;
}
]]></style>
</defs>
<line x1="62.5" y1="0.0" x2="62.5" y2="62.5"/>
<line x1="62.5" y1="62.5" x2="62.5" y2="125.0"/>
<line x1="62.5" y1="125.0" x2="62.5" y2="187.5"/>
<line x1="62.5" y1="187.5" x2="62.5" y2="250.0"/>
<line x1="62.5" y1="250.0" x2="62.5" y2="312.5"/>
<line x1="62.5" y1="312.5" x2="62.5" y2="375.0"/>
<line x1="0.0" y1="437.5" x2="62.5" y2="437.5"/>
<line x1="0.0" y1="500.0" x2="62.5" y2="500.0"/>
<line x1="125.0" y1="0.0" x2="125.0" y2="62.5"/>
<line x1="125.0" y1="187.5" x2="125.0" y2="250.0"/>
<line x1="125.0" y1="250.0" x2="125.0" y2="312.5"/>
<line x1="62.5" y1="375.0" x2="125.0" y2="375.0"/>
<line x1="62.5" y1="437.5" x2="125.0" y2="437.5"/>
<line x1="62.5" y1="500.0" x2="125.0" y2="500.0"/>
<line x1="125.0" y1="125.0" x2="187.5" y2="125.0"/>
<line x1="187.5" y1="62.5" x2="187.5" y2="125.0"/>
<line x1="125.0" y1="187.5" x2="187.5" y2="187.5"/>
<line x1="125.0" y1="312.5" x2="187.5" y2="312.5"/>
<line x1="125.0" y1="375.0" x2="187.5" y2="375.0"/>
<line x1="187.5" y1="312.5" x2="187.5" y2="375.0"/>
<line x1="187.5" y1="375.0" x2="187.5" y2="437.5"/>
<line x1="125.0" y1="500.0" x2="187.5" y2="500.0"/>
<line x1="187.5" y1="62.5" x2="250.0" y2="62.5"/>
<line x1="250.0" y1="62.5" x2="250.0" y2="125.0"/>
<line x1="187.5" y1="187.5" x2="250.0" y2="187.5"/>
<line x1="250.0" y1="125.0" x2="250.0" y2="187.5"/>
<line x1="187.5" y1="250.0" x2="250.0" y2="250.0"/>
<line x1="250.0" y1="250.0" x2="250.0" y2="312.5"/>
<line x1="250.0" y1="312.5" x2="250.0" y2="375.0"/>
<line x1="250.0" y1="375.0" x2="250.0" y2="437.5"/>
<line x1="187.5" y1="500.0" x2="250.0" y2="500.0"/>
<line x1="250.0" y1="437.5" x2="250.0" y2="500.0"/>
<line x1="250.0" y1="62.5" x2="312.5" y2="62.5"/>
<line x1="250.0" y1="187.5" x2="312.5" y2="187.5"/>
<line x1="312.5" y1="187.5" x2="312.5" y2="250.0"/>
<line x1="250.0" y1="312.5" x2="312.5" y2="312.5"/>
<line x1="250.0" y1="500.0" x2="312.5" y2="500.0"/>
<line x1="312.5" y1="125.0" x2="375.0" y2="125.0"/>
<line x1="375.0" y1="62.5" x2="375.0" y2="125.0"/>
<line x1="375.0" y1="125.0" x2="375.0" y2="187.5"/>
<line x1="375.0" y1="187.5" x2="375.0" y2="250.0"/>
<line x1="312.5" y1="312.5" x2="375.0" y2="312.5"/>
<line x1="375.0" y1="250.0" x2="375.0" y2="312.5"/>
<line x1="312.5" y1="375.0" x2="375.0" y2="375.0"/>
<line x1="375.0" y1="312.5" x2="375.0" y2="375.0"/>
<line x1="312.5" y1="437.5" x2="375.0" y2="437.5"/>
<line x1="312.5" y1="500.0" x2="375.0" y2="500.0"/>
<line x1="437.5" y1="0.0" x2="437.5" y2="62.5"/>
<line x1="437.5" y1="62.5" x2="437.5" y2="125.0"/>
<line x1="375.0" y1="187.5" x2="437.5" y2="187.5"/>
<line x1="437.5" y1="187.5" x2="437.5" y2="250.0"/>
<line x1="375.0" y1="375.0" x2="437.5" y2="375.0"/>
<line x1="375.0" y1="437.5" x2="437.5" y2="437.5"/>
<line x1="375.0" y1="500.0" x2="437.5" y2="500.0"/>
<line x1="500.0" y1="0.0" x2="500.0" y2="62.5"/>
<line x1="500.0" y1="62.5" x2="500.0" y2="125.0"/>
<line x1="500.0" y1="125.0" x2="500.0" y2="187.5"/>
<line x1="500.0" y1="187.5" x2="500.0" y2="250.0"/>
<line x1="437.5" y1="312.5" x2="500.0" y2="312.5"/>
<line x1="500.0" y1="250.0" x2="500.0" y2="312.5"/>
<line x1="500.0" y1="312.5" x2="500.0" y2="375.0"/>
<line x1="437.5" y1="437.5" x2="500.0" y2="437.5"/>
<line x1="500.0" y1="375.0" x2="500.0" y2="437.5"/>
<line x1="437.5" y1="500.0" x2="500.0" y2="500.0"/>
<line x1="500.0" y1="437.5" x2="500.0" y2="500.0"/>
<line x1="0" y1="0" x2="500" y2="0"/>
<line x1="0" y1="0" x2="0" y2="500"/>
</svg>
